<svg xmlns="http://www.w3.org/2000/svg" xmlns:xlink="http://www.w3.org/1999/xlink" width="300" zoomAndPan="magnify" viewBox="0 0 224.87999 42" height="56" preserveAspectRatio="xMidYMid meet" version="1.0"><defs><g/><clipPath id="b4d4750945"><path d="M 24.765625 6.554688 L 54.710938 6.554688 L 54.710938 12.871094 L 24.765625 12.871094 Z M 24.765625 6.554688 " clip-rule="nonzero"/></clipPath><clipPath id="3cffe59e1c"><path d="M 24.761719 6.554688 L 31.078125 6.554688 L 31.078125 36.921875 L 24.761719 36.921875 Z M 24.761719 6.554688 " clip-rule="nonzero"/></clipPath><clipPath id="55c241cc44"><path d="M 48.390625 6.554688 L 54.707031 6.554688 L 54.707031 25.527344 L 48.390625 25.527344 Z M 48.390625 6.554688 " clip-rule="nonzero"/></clipPath><clipPath id="12a923f827"><path d="M 36.574219 6.554688 L 42.890625 6.554688 L 42.890625 21.738281 L 36.574219 21.738281 Z M 36.574219 6.554688 " clip-rule="nonzero"/></clipPath></defs><g clip-path="url(#b4d4750945)"><path fill="#ffffff" d="M 24.765625 6.554688 L 54.722656 6.554688 L 54.722656 12.871094 L 24.765625 12.871094 Z M 24.765625 6.554688 " fill-opacity="1" fill-rule="nonzero"/></g><g clip-path="url(#3cffe59e1c)"><path fill="#ffffff" d="M 31.078125 6.554688 L 31.078125 36.929688 L 24.761719 36.929688 L 24.761719 6.554688 Z M 31.078125 6.554688 " fill-opacity="1" fill-rule="nonzero"/></g><g clip-path="url(#55c241cc44)"><path fill="#ffffff" d="M 54.707031 6.554688 L 54.707031 25.527344 L 48.390625 25.527344 L 48.390625 6.554688 Z M 54.707031 6.554688 " fill-opacity="1" fill-rule="nonzero"/></g><g clip-path="url(#12a923f827)"><path fill="#ffffff" d="M 42.890625 6.554688 L 42.890625 21.730469 L 36.574219 21.730469 L 36.574219 6.554688 Z M 42.890625 6.554688 " fill-opacity="1" fill-rule="nonzero"/></g><g fill="#ffffff" fill-opacity="1"><g transform="translate(61.667639, 23.706394)"><g><path d="M 2.375 5.546875 L 2.375 -15.765625 C 2.375 -15.910156 2.453125 -15.984375 2.609375 -15.984375 L 3.328125 -15.984375 C 3.523438 -15.984375 3.625 -15.894531 3.625 -15.71875 L 3.71875 -14.0625 L 3.78125 -14.0625 C 4.21875 -14.800781 4.828125 -15.351562 5.609375 -15.71875 C 6.390625 -16.09375 7.410156 -16.28125 8.671875 -16.28125 C 10.222656 -16.28125 11.414062 -16.007812 12.25 -15.46875 C 13.082031 -14.925781 13.664062 -14.113281 14 -13.03125 C 14.34375 -11.957031 14.515625 -10.632812 14.515625 -9.0625 L 14.515625 -7.171875 C 14.515625 -5.609375 14.351562 -4.265625 14.03125 -3.140625 C 13.707031 -2.023438 13.128906 -1.171875 12.296875 -0.578125 C 11.472656 0.00390625 10.3125 0.296875 8.8125 0.296875 C 7.457031 0.296875 6.410156 0.117188 5.671875 -0.234375 C 4.929688 -0.597656 4.332031 -1.128906 3.875 -1.828125 L 3.78125 -1.828125 L 3.78125 5.546875 C 3.78125 5.722656 3.695312 5.8125 3.53125 5.8125 L 2.609375 5.8125 C 2.453125 5.8125 2.375 5.722656 2.375 5.546875 Z M 3.78125 -10.46875 L 3.78125 -5.515625 C 3.78125 -4.097656 4.210938 -2.992188 5.078125 -2.203125 C 5.953125 -1.410156 7.148438 -1.015625 8.671875 -1.015625 C 9.722656 -1.015625 10.570312 -1.179688 11.21875 -1.515625 C 11.875 -1.847656 12.347656 -2.476562 12.640625 -3.40625 C 12.929688 -4.332031 13.078125 -5.664062 13.078125 -7.40625 L 13.078125 -8.78125 C 13.078125 -9.84375 13.015625 -10.726562 12.890625 -11.4375 C 12.773438 -12.144531 12.554688 -12.78125 12.234375 -13.34375 C 11.597656 -14.425781 10.378906 -14.96875 8.578125 -14.96875 C 5.378906 -14.96875 3.78125 -13.46875 3.78125 -10.46875 Z M 3.78125 -10.46875 "/></g></g></g><g fill="#ffffff" fill-opacity="1"><g transform="translate(78.628163, 23.706394)"><g><path d="M 1.375 -4.234375 L 1.375 -4.625 C 1.375 -5.65625 1.535156 -6.507812 1.859375 -7.1875 C 2.179688 -7.875 2.757812 -8.382812 3.59375 -8.71875 C 4.4375 -9.0625 5.640625 -9.234375 7.203125 -9.234375 L 8.84375 -9.234375 C 9.082031 -9.234375 9.394531 -9.222656 9.78125 -9.203125 C 10.175781 -9.179688 10.644531 -9.148438 11.1875 -9.109375 L 11.1875 -11.03125 C 11.1875 -12.53125 10.867188 -13.566406 10.234375 -14.140625 C 9.609375 -14.710938 8.597656 -15 7.203125 -15 C 5.960938 -15 4.660156 -14.804688 3.296875 -14.421875 C 3.015625 -14.335938 2.835938 -14.390625 2.765625 -14.578125 L 2.640625 -15.171875 C 2.617188 -15.410156 2.707031 -15.5625 2.90625 -15.625 C 3.582031 -15.84375 4.289062 -16.003906 5.03125 -16.109375 C 5.769531 -16.222656 6.550781 -16.28125 7.375 -16.28125 C 9.269531 -16.28125 10.613281 -15.84375 11.40625 -14.96875 C 12.195312 -14.101562 12.59375 -12.679688 12.59375 -10.703125 L 12.59375 -0.296875 C 12.59375 -0.0976562 12.492188 0 12.296875 0 L 11.578125 0 C 11.378906 0 11.269531 -0.109375 11.25 -0.328125 L 11.15625 -1.625 L 11.09375 -1.625 C 10.71875 -0.976562 10.191406 -0.492188 9.515625 -0.171875 C 8.847656 0.140625 7.90625 0.296875 6.6875 0.296875 L 6.03125 0.296875 C 4.3125 0.296875 3.101562 -0.0507812 2.40625 -0.75 C 1.71875 -1.445312 1.375 -2.609375 1.375 -4.234375 Z M 2.8125 -4.828125 L 2.8125 -4.015625 C 2.8125 -2.921875 3.046875 -2.140625 3.515625 -1.671875 C 3.992188 -1.210938 4.75 -0.984375 5.78125 -0.984375 L 7.046875 -0.984375 C 8.460938 -0.984375 9.503906 -1.296875 10.171875 -1.921875 C 10.847656 -2.554688 11.1875 -3.535156 11.1875 -4.859375 L 11.1875 -7.828125 C 10.800781 -7.867188 10.425781 -7.898438 10.0625 -7.921875 C 9.707031 -7.941406 9.351562 -7.953125 9 -7.953125 L 6.953125 -7.953125 C 5.453125 -7.953125 4.382812 -7.710938 3.75 -7.234375 C 3.125 -6.765625 2.8125 -5.960938 2.8125 -4.828125 Z M 2.8125 -4.828125 "/></g></g></g><g fill="#ffffff" fill-opacity="1"><g transform="translate(94.218799, 23.706394)"><g><path d="M 2.375 -0.265625 L 2.375 -15.765625 C 2.375 -15.910156 2.453125 -15.984375 2.609375 -15.984375 L 3.265625 -15.984375 C 3.460938 -15.984375 3.582031 -15.894531 3.625 -15.71875 L 3.8125 -14.125 L 3.84375 -14.125 C 4.539062 -15.363281 5.726562 -15.984375 7.40625 -15.984375 L 8.421875 -15.984375 C 8.585938 -15.984375 8.671875 -15.894531 8.671875 -15.71875 L 8.671875 -14.96875 C 8.671875 -14.78125 8.578125 -14.6875 8.390625 -14.6875 L 7.40625 -14.6875 C 6.007812 -14.6875 5.039062 -14.25 4.5 -13.375 C 4.019531 -12.632812 3.78125 -11.675781 3.78125 -10.5 L 3.78125 -0.265625 C 3.78125 -0.0859375 3.695312 0 3.53125 0 L 2.609375 0 C 2.453125 0 2.375 -0.0859375 2.375 -0.265625 Z M 2.375 -0.265625 "/></g></g></g><g fill="#ffffff" fill-opacity="1"><g transform="translate(104.29728, 23.706394)"><g><path d="M 2.375 -0.265625 L 2.375 -21.828125 C 2.375 -22.003906 2.453125 -22.09375 2.609375 -22.09375 L 3.53125 -22.09375 C 3.695312 -22.09375 3.78125 -22.003906 3.78125 -21.828125 L 3.78125 -9.171875 L 5.515625 -9.171875 C 5.972656 -9.171875 6.351562 -9.398438 6.65625 -9.859375 L 10.96875 -15.796875 C 11.070312 -15.921875 11.210938 -15.984375 11.390625 -15.984375 L 12.296875 -15.984375 C 12.472656 -15.984375 12.5625 -15.929688 12.5625 -15.828125 C 12.5625 -15.828125 12.539062 -15.757812 12.5 -15.625 L 7.4375 -8.703125 C 7.351562 -8.617188 7.351562 -8.488281 7.4375 -8.3125 L 12.46875 -0.359375 C 12.507812 -0.222656 12.53125 -0.15625 12.53125 -0.15625 C 12.53125 -0.0507812 12.441406 0 12.265625 0 L 11.390625 0 C 11.191406 0 11.035156 -0.0859375 10.921875 -0.265625 L 6.53125 -7.28125 C 6.394531 -7.5 6.257812 -7.648438 6.125 -7.734375 C 6 -7.816406 5.816406 -7.859375 5.578125 -7.859375 L 3.78125 -7.859375 L 3.78125 -0.265625 C 3.78125 -0.0859375 3.695312 0 3.53125 0 L 2.609375 0 C 2.453125 0 2.375 -0.0859375 2.375 -0.265625 Z M 2.375 -0.265625 "/></g></g></g><g fill="#ffffff" fill-opacity="1"><g transform="translate(118.28972, 23.706394)"><g><path d="M 2.375 -0.265625 L 2.375 -15.765625 C 2.375 -15.910156 2.453125 -15.984375 2.609375 -15.984375 L 3.328125 -15.984375 C 3.523438 -15.984375 3.625 -15.894531 3.625 -15.71875 L 3.71875 -14.15625 L 3.78125 -14.15625 C 4.175781 -14.832031 4.757812 -15.351562 5.53125 -15.71875 C 6.300781 -16.09375 7.21875 -16.28125 8.28125 -16.28125 C 9.519531 -16.28125 10.519531 -16.09375 11.28125 -15.71875 C 12.050781 -15.351562 12.671875 -14.757812 13.140625 -13.9375 L 13.21875 -13.9375 C 13.695312 -14.601562 14.375 -15.160156 15.25 -15.609375 C 16.132812 -16.054688 17.195312 -16.28125 18.4375 -16.28125 C 20.800781 -16.28125 22.410156 -15.519531 23.265625 -14 C 23.742188 -13.164062 23.984375 -11.816406 23.984375 -9.953125 L 23.984375 -0.265625 C 23.984375 -0.0859375 23.894531 0 23.71875 0 L 22.8125 0 C 22.65625 0 22.578125 -0.0859375 22.578125 -0.265625 L 22.578125 -9.8125 C 22.578125 -11.082031 22.445312 -12.0625 22.1875 -12.75 C 21.925781 -13.445312 21.507812 -13.972656 20.9375 -14.328125 C 20.207031 -14.753906 19.316406 -14.96875 18.265625 -14.96875 C 16.304688 -14.96875 14.773438 -14.238281 13.671875 -12.78125 C 13.753906 -12.375 13.8125 -11.9375 13.84375 -11.46875 C 13.875 -11 13.890625 -10.492188 13.890625 -9.953125 L 13.890625 -0.265625 C 13.890625 -0.0859375 13.804688 0 13.640625 0 L 12.71875 0 C 12.570312 0 12.5 -0.0859375 12.5 -0.265625 L 12.5 -10.046875 C 12.5 -11.828125 12.15625 -13.09375 11.46875 -13.84375 C 10.78125 -14.59375 9.675781 -14.96875 8.15625 -14.96875 C 6.738281 -14.96875 5.65625 -14.578125 4.90625 -13.796875 C 4.15625 -13.015625 3.78125 -11.882812 3.78125 -10.40625 L 3.78125 -0.265625 C 3.78125 -0.0859375 3.695312 0 3.53125 0 L 2.609375 0 C 2.453125 0 2.375 -0.0859375 2.375 -0.265625 Z M 2.375 -0.265625 "/></g></g></g><g fill="#ffffff" fill-opacity="1"><g transform="translate(145.263441, 23.706394)"><g><path d="M 1.375 -4.234375 L 1.375 -4.625 C 1.375 -5.65625 1.535156 -6.507812 1.859375 -7.1875 C 2.179688 -7.875 2.757812 -8.382812 3.59375 -8.71875 C 4.4375 -9.0625 5.640625 -9.234375 7.203125 -9.234375 L 8.84375 -9.234375 C 9.082031 -9.234375 9.394531 -9.222656 9.78125 -9.203125 C 10.175781 -9.179688 10.644531 -9.148438 11.1875 -9.109375 L 11.1875 -11.03125 C 11.1875 -12.53125 10.867188 -13.566406 10.234375 -14.140625 C 9.609375 -14.710938 8.597656 -15 7.203125 -15 C 5.960938 -15 4.660156 -14.804688 3.296875 -14.421875 C 3.015625 -14.335938 2.835938 -14.390625 2.765625 -14.578125 L 2.640625 -15.171875 C 2.617188 -15.410156 2.707031 -15.5625 2.90625 -15.625 C 3.582031 -15.84375 4.289062 -16.003906 5.03125 -16.109375 C 5.769531 -16.222656 6.550781 -16.28125 7.375 -16.28125 C 9.269531 -16.28125 10.613281 -15.84375 11.40625 -14.96875 C 12.195312 -14.101562 12.59375 -12.679688 12.59375 -10.703125 L 12.59375 -0.296875 C 12.59375 -0.0976562 12.492188 0 12.296875 0 L 11.578125 0 C 11.378906 0 11.269531 -0.109375 11.25 -0.328125 L 11.15625 -1.625 L 11.09375 -1.625 C 10.71875 -0.976562 10.191406 -0.492188 9.515625 -0.171875 C 8.847656 0.140625 7.90625 0.296875 6.6875 0.296875 L 6.03125 0.296875 C 4.3125 0.296875 3.101562 -0.0507812 2.40625 -0.75 C 1.71875 -1.445312 1.375 -2.609375 1.375 -4.234375 Z M 2.8125 -4.828125 L 2.8125 -4.015625 C 2.8125 -2.921875 3.046875 -2.140625 3.515625 -1.671875 C 3.992188 -1.210938 4.75 -0.984375 5.78125 -0.984375 L 7.046875 -0.984375 C 8.460938 -0.984375 9.503906 -1.296875 10.171875 -1.921875 C 10.847656 -2.554688 11.1875 -3.535156 11.1875 -4.859375 L 11.1875 -7.828125 C 10.800781 -7.867188 10.425781 -7.898438 10.0625 -7.921875 C 9.707031 -7.941406 9.351562 -7.953125 9 -7.953125 L 6.953125 -7.953125 C 5.453125 -7.953125 4.382812 -7.710938 3.75 -7.234375 C 3.125 -6.765625 2.8125 -5.960938 2.8125 -4.828125 Z M 2.8125 -4.828125 "/></g></g></g><g fill="#ffffff" fill-opacity="1"><g transform="translate(160.85408, 23.706394)"><g><path d="M 0.296875 -14.875 L 0.296875 -15.5 C 0.296875 -15.625 0.359375 -15.695312 0.484375 -15.71875 L 2.765625 -15.984375 L 2.765625 -19.796875 C 2.765625 -19.972656 2.851562 -20.0625 3.03125 -20.0625 L 3.921875 -20.0625 C 4.085938 -20.0625 4.171875 -19.972656 4.171875 -19.796875 L 4.171875 -15.984375 L 8.15625 -15.984375 C 8.332031 -15.984375 8.421875 -15.910156 8.421875 -15.765625 L 8.421875 -14.90625 C 8.421875 -14.757812 8.332031 -14.6875 8.15625 -14.6875 L 4.171875 -14.6875 L 4.171875 -5.1875 C 4.171875 -4.3125 4.207031 -3.65625 4.28125 -3.21875 C 4.363281 -2.789062 4.535156 -2.414062 4.796875 -2.09375 C 5.296875 -1.519531 6.21875 -1.234375 7.5625 -1.234375 L 8.546875 -1.234375 C 8.722656 -1.234375 8.8125 -1.148438 8.8125 -0.984375 L 8.8125 -0.265625 C 8.8125 -0.0859375 8.722656 0 8.546875 0 L 7.375 0 C 5.539062 0 4.289062 -0.4375 3.625 -1.3125 C 3.269531 -1.757812 3.035156 -2.238281 2.921875 -2.75 C 2.816406 -3.269531 2.765625 -4.03125 2.765625 -5.03125 L 2.765625 -14.6875 L 0.484375 -14.6875 C 0.359375 -14.6875 0.296875 -14.75 0.296875 -14.875 Z M 0.296875 -14.875 "/></g></g></g><g fill="#ffffff" fill-opacity="1"><g transform="translate(171.258737, 23.706394)"><g><path d="M 2.34375 -20.15625 L 2.34375 -20.359375 C 2.34375 -21.179688 2.738281 -21.59375 3.53125 -21.59375 L 3.65625 -21.59375 C 4.375 -21.59375 4.734375 -21.179688 4.734375 -20.359375 L 4.734375 -20.15625 C 4.734375 -19.3125 4.375 -18.890625 3.65625 -18.890625 L 3.53125 -18.890625 C 3.09375 -18.890625 2.785156 -18.988281 2.609375 -19.1875 C 2.429688 -19.382812 2.34375 -19.707031 2.34375 -20.15625 Z M 2.875 -0.265625 L 2.875 -15.71875 C 2.875 -15.894531 2.945312 -15.984375 3.09375 -15.984375 L 4.015625 -15.984375 C 4.191406 -15.984375 4.28125 -15.894531 4.28125 -15.71875 L 4.28125 -0.265625 C 4.28125 -0.0859375 4.191406 0 4.015625 0 L 3.09375 0 C 2.945312 0 2.875 -0.0859375 2.875 -0.265625 Z M 2.875 -0.265625 "/></g></g></g><g fill="#ffffff" fill-opacity="1"><g transform="translate(179.217167, 23.706394)"><g><path d="M 0.84375 -0.296875 L 4.53125 -7.796875 C 4.6875 -8.078125 4.695312 -8.335938 4.5625 -8.578125 L 1.109375 -15.65625 C 1.023438 -15.875 1.078125 -15.984375 1.265625 -15.984375 L 2.1875 -15.984375 C 2.363281 -15.984375 2.492188 -15.921875 2.578125 -15.796875 L 5.578125 -9.390625 C 5.753906 -9.066406 5.984375 -8.90625 6.265625 -8.90625 L 6.984375 -8.90625 C 7.285156 -8.90625 7.515625 -9.066406 7.671875 -9.390625 L 10.765625 -15.796875 C 10.867188 -15.921875 11 -15.984375 11.15625 -15.984375 L 12.078125 -15.984375 C 12.265625 -15.984375 12.316406 -15.875 12.234375 -15.65625 L 8.671875 -8.578125 C 8.546875 -8.335938 8.554688 -8.078125 8.703125 -7.796875 L 12.46875 -0.328125 C 12.488281 -0.265625 12.5 -0.195312 12.5 -0.125 C 12.5 -0.0390625 12.429688 0 12.296875 0 L 11.328125 0 C 11.109375 0 10.972656 -0.0664062 10.921875 -0.203125 L 7.609375 -7.140625 C 7.515625 -7.335938 7.414062 -7.460938 7.3125 -7.515625 C 7.21875 -7.578125 7.0625 -7.609375 6.84375 -7.609375 L 6.359375 -7.609375 C 6.117188 -7.609375 5.953125 -7.582031 5.859375 -7.53125 C 5.773438 -7.488281 5.703125 -7.359375 5.640625 -7.140625 L 2.421875 -0.203125 C 2.390625 -0.0664062 2.253906 0 2.015625 0 L 1.015625 0 C 0.859375 0 0.78125 -0.0390625 0.78125 -0.125 C 0.78125 -0.144531 0.800781 -0.203125 0.84375 -0.296875 Z M 0.84375 -0.296875 "/></g></g></g></svg>